<mxfile host="app.diagrams.net" modified="2024-04-19T07:24:37.275Z" agent="Mozilla/5.0 (Windows NT 10.0; Win64; x64) AppleWebKit/537.36 (KHTML, like Gecko) Chrome/123.0.0.0 Safari/537.36" etag="5eGm0lVuuOX2F6F0mAxJ" version="24.2.5" type="github">
  <diagram name="Demo App" id="-NYTd33vq45Lj5fIHe3P">
    <mxGraphModel dx="1621" dy="458" grid="1" gridSize="10" guides="1" tooltips="1" connect="1" arrows="1" fold="1" page="1" pageScale="1" pageWidth="827" pageHeight="1169" math="0" shadow="0">
      <root>
        <mxCell id="0" />
        <mxCell id="1" parent="0" />
        <mxCell id="-8aRLoaprtv5HyhjQbQQ-13" value="demo app" style="rounded=0;whiteSpace=wrap;html=1;verticalAlign=top;labelBackgroundColor=none;fillColor=#d5e8d4;strokeColor=#82b366;" vertex="1" parent="1">
          <mxGeometry x="-583" y="120" width="570" height="360" as="geometry" />
        </mxCell>
        <mxCell id="-8aRLoaprtv5HyhjQbQQ-1" value="frontend" style="rounded=0;whiteSpace=wrap;html=1;verticalAlign=top;" vertex="1" parent="1">
          <mxGeometry x="-513" y="185" width="120" height="230" as="geometry" />
        </mxCell>
        <mxCell id="-8aRLoaprtv5HyhjQbQQ-3" value="map services" style="rounded=0;whiteSpace=wrap;html=1;verticalAlign=top;" vertex="1" parent="1">
          <mxGeometry x="-333" y="185" width="120" height="230" as="geometry" />
        </mxCell>
        <mxCell id="-8aRLoaprtv5HyhjQbQQ-4" value="data sources" style="rounded=0;whiteSpace=wrap;html=1;align=center;verticalAlign=top;" vertex="1" parent="1">
          <mxGeometry x="-153" y="185" width="120" height="230" as="geometry" />
        </mxCell>
        <mxCell id="-8aRLoaprtv5HyhjQbQQ-14" value="" style="edgeStyle=orthogonalEdgeStyle;rounded=0;orthogonalLoop=1;jettySize=auto;html=1;" edge="1" parent="1" source="-8aRLoaprtv5HyhjQbQQ-5" target="-8aRLoaprtv5HyhjQbQQ-9">
          <mxGeometry relative="1" as="geometry" />
        </mxCell>
        <mxCell id="-8aRLoaprtv5HyhjQbQQ-27" value="9090" style="edgeLabel;html=1;align=center;verticalAlign=middle;resizable=0;points=[];" vertex="1" connectable="0" parent="-8aRLoaprtv5HyhjQbQQ-14">
          <mxGeometry x="-0.3212" relative="1" as="geometry">
            <mxPoint as="offset" />
          </mxGeometry>
        </mxCell>
        <mxCell id="-8aRLoaprtv5HyhjQbQQ-5" value="react app" style="rounded=0;whiteSpace=wrap;html=1;fillColor=#e1d5e7;strokeColor=#9673a6;" vertex="1" parent="1">
          <mxGeometry x="-503" y="225" width="100" height="50" as="geometry" />
        </mxCell>
        <mxCell id="-8aRLoaprtv5HyhjQbQQ-7" value="npm server" style="rounded=0;whiteSpace=wrap;html=1;" vertex="1" parent="1">
          <mxGeometry x="-503" y="285" width="100" height="50" as="geometry" />
        </mxCell>
        <mxCell id="-8aRLoaprtv5HyhjQbQQ-8" value="leaflet js" style="rounded=0;whiteSpace=wrap;html=1;fillColor=#60a917;fontColor=#ffffff;strokeColor=#2D7600;" vertex="1" parent="1">
          <mxGeometry x="-503" y="345" width="100" height="50" as="geometry" />
        </mxCell>
        <mxCell id="-8aRLoaprtv5HyhjQbQQ-15" style="edgeStyle=orthogonalEdgeStyle;rounded=0;orthogonalLoop=1;jettySize=auto;html=1;entryX=0;entryY=0.5;entryDx=0;entryDy=0;" edge="1" parent="1" source="-8aRLoaprtv5HyhjQbQQ-9" target="-8aRLoaprtv5HyhjQbQQ-11">
          <mxGeometry relative="1" as="geometry" />
        </mxCell>
        <mxCell id="-8aRLoaprtv5HyhjQbQQ-25" value="5432" style="edgeLabel;html=1;align=center;verticalAlign=middle;resizable=0;points=[];" vertex="1" connectable="0" parent="-8aRLoaprtv5HyhjQbQQ-15">
          <mxGeometry x="0.3273" y="3" relative="1" as="geometry">
            <mxPoint as="offset" />
          </mxGeometry>
        </mxCell>
        <mxCell id="-8aRLoaprtv5HyhjQbQQ-16" style="edgeStyle=orthogonalEdgeStyle;rounded=0;orthogonalLoop=1;jettySize=auto;html=1;" edge="1" parent="1" source="-8aRLoaprtv5HyhjQbQQ-9" target="-8aRLoaprtv5HyhjQbQQ-12">
          <mxGeometry relative="1" as="geometry" />
        </mxCell>
        <mxCell id="-8aRLoaprtv5HyhjQbQQ-26" value="storage" style="edgeLabel;html=1;align=center;verticalAlign=middle;resizable=0;points=[];" vertex="1" connectable="0" parent="-8aRLoaprtv5HyhjQbQQ-16">
          <mxGeometry x="0.3455" y="1" relative="1" as="geometry">
            <mxPoint as="offset" />
          </mxGeometry>
        </mxCell>
        <mxCell id="-8aRLoaprtv5HyhjQbQQ-9" value="geoserver" style="rounded=0;whiteSpace=wrap;html=1;fillColor=#dae8fc;strokeColor=#6c8ebf;" vertex="1" parent="1">
          <mxGeometry x="-323" y="285" width="100" height="50" as="geometry" />
        </mxCell>
        <mxCell id="-8aRLoaprtv5HyhjQbQQ-11" value="postgis" style="rounded=0;whiteSpace=wrap;html=1;fillColor=#fa6800;fontColor=#000000;strokeColor=#C73500;" vertex="1" parent="1">
          <mxGeometry x="-143" y="255" width="100" height="50" as="geometry" />
        </mxCell>
        <mxCell id="-8aRLoaprtv5HyhjQbQQ-12" value=".gpkg .fgb files" style="rounded=0;whiteSpace=wrap;html=1;" vertex="1" parent="1">
          <mxGeometry x="-143" y="315" width="100" height="50" as="geometry" />
        </mxCell>
        <mxCell id="-8aRLoaprtv5HyhjQbQQ-21" style="edgeStyle=orthogonalEdgeStyle;rounded=0;orthogonalLoop=1;jettySize=auto;html=1;exitX=0.5;exitY=0.5;exitDx=0;exitDy=0;exitPerimeter=0;entryX=0;entryY=0.5;entryDx=0;entryDy=0;" edge="1" parent="1" source="-8aRLoaprtv5HyhjQbQQ-17" target="-8aRLoaprtv5HyhjQbQQ-5">
          <mxGeometry relative="1" as="geometry" />
        </mxCell>
        <mxCell id="-8aRLoaprtv5HyhjQbQQ-24" value="web browser" style="edgeLabel;html=1;align=center;verticalAlign=middle;resizable=0;points=[];" vertex="1" connectable="0" parent="-8aRLoaprtv5HyhjQbQQ-21">
          <mxGeometry x="-0.3755" y="2" relative="1" as="geometry">
            <mxPoint as="offset" />
          </mxGeometry>
        </mxCell>
        <mxCell id="-8aRLoaprtv5HyhjQbQQ-17" value="web app &lt;br&gt;client" style="shape=umlActor;verticalLabelPosition=bottom;verticalAlign=top;html=1;outlineConnect=0;" vertex="1" parent="1">
          <mxGeometry x="-700" y="165" width="30" height="60" as="geometry" />
        </mxCell>
        <mxCell id="-8aRLoaprtv5HyhjQbQQ-22" style="edgeStyle=orthogonalEdgeStyle;rounded=0;orthogonalLoop=1;jettySize=auto;html=1;" edge="1" parent="1" source="-8aRLoaprtv5HyhjQbQQ-18" target="-8aRLoaprtv5HyhjQbQQ-9">
          <mxGeometry relative="1" as="geometry">
            <Array as="points">
              <mxPoint x="-630" y="395" />
              <mxPoint x="-630" y="440" />
              <mxPoint x="-273" y="440" />
            </Array>
          </mxGeometry>
        </mxCell>
        <mxCell id="-8aRLoaprtv5HyhjQbQQ-23" value="OWS" style="edgeLabel;html=1;align=center;verticalAlign=middle;resizable=0;points=[];" vertex="1" connectable="0" parent="-8aRLoaprtv5HyhjQbQQ-22">
          <mxGeometry x="-0.2395" y="3" relative="1" as="geometry">
            <mxPoint as="offset" />
          </mxGeometry>
        </mxCell>
        <mxCell id="-8aRLoaprtv5HyhjQbQQ-18" value="GIS system &lt;br&gt;client" style="shape=umlActor;verticalLabelPosition=bottom;verticalAlign=top;html=1;outlineConnect=0;" vertex="1" parent="1">
          <mxGeometry x="-700" y="365" width="30" height="60" as="geometry" />
        </mxCell>
      </root>
    </mxGraphModel>
  </diagram>
</mxfile>
